<svg width="38" height="24" viewBox="0 0 38 24" fill="none" xmlns="http://www.w3.org/2000/svg">
<rect x="0.75" y="0.75" width="36.5" height="22.5" rx="5.25" stroke="#41B6DF" stroke-width="1.5"/>
<path d="M5.988 17V7.549H9.225C11.4957 7.549 12.631 8.58467 12.631 10.656C12.631 12.7273 11.4957 13.763 9.225 13.763H7.6V17H5.988ZM8.887 8.862H7.6V12.45H8.887C9.63233 12.45 10.1697 12.3113 10.499 12.034C10.837 11.748 11.006 11.2887 11.006 10.656C11.006 10.0147 10.837 9.55533 10.499 9.278C10.1697 9.00067 9.63233 8.862 8.887 8.862ZM13.986 17V7.549H15.507L20.044 14.335V7.549H21.656V17H20.135L15.598 10.227V17H13.986ZM27.7815 12.944V12.008H31.1095V16.532C30.6848 16.74 30.2038 16.896 29.6665 17C29.1292 17.1127 28.5788 17.169 28.0155 17.169C26.4642 17.169 25.2855 16.7487 24.4795 15.908C23.6822 15.0587 23.2835 13.8107 23.2835 12.164C23.2835 11.1587 23.4785 10.3007 23.8685 9.59C24.2585 8.87933 24.8175 8.33333 25.5455 7.952C26.2822 7.57067 27.1662 7.38 28.1975 7.38C28.6222 7.38 29.0295 7.419 29.4195 7.497C29.8182 7.56633 30.1822 7.67467 30.5115 7.822V9.2C30.0782 9.05267 29.6838 8.94867 29.3285 8.888C28.9732 8.81867 28.6178 8.784 28.2625 8.784C27.1965 8.784 26.3732 9.07867 25.7925 9.668C25.2205 10.2487 24.9345 11.0807 24.9345 12.164C24.9345 14.556 25.9745 15.752 28.0545 15.752C28.5572 15.752 29.0642 15.7 29.5755 15.596V13.425L27.7815 12.944Z" fill="#41B6DF"/>
</svg>
