<svg width="74" height="48" viewBox="0 0 74 48" fill="none" xmlns="http://www.w3.org/2000/svg">
<path d="M60.0633 19.8844C60.0633 19.6875 60.0961 19.4906 60.0961 19.2938C60.0961 8.62969 51.5977 0 41.1141 0C33.5508 0 27.0539 4.49531 24.0023 10.9922C22.6734 10.3195 21.1805 9.92578 19.6055 9.92578C14.7656 9.92578 10.7297 13.5188 9.95859 18.2109C4.15078 20.2125 0 25.7742 0 32.3203C0 40.5563 6.57891 47.25 14.6836 47.25H31.5V34.125H23.5922L36.75 20.393L49.9078 34.1086H42V47.2336H60.0961C67.5117 47.2336 73.5 41.0812 73.5 33.5508C73.5 26.0203 67.4789 19.9008 60.0633 19.8844Z" fill="#CCCCCC"/>
</svg>
